<svg id="Layer_2"
  xmlns="http://www.w3.org/2000/svg"
  xmlns:xlink="http://www.w3.org/1999/xlink" viewBox="0 0 414.74 78.1">
  <defs>
    <linearGradient id="New_Gradient_Swatch_17" x1="252.54" y1="-30.02" x2="247.55" y2="260.57" gradientUnits="userSpaceOnUse">
      <stop offset="0" stop-color="#0092b7"/>
      <stop offset=".55" stop-color="#00f2ff"/>
    </linearGradient>
    <linearGradient id="New_Gradient_Swatch_1" x1="18.36" y1="21.84" x2="60.64" y2="21.84" gradientUnits="userSpaceOnUse">
      <stop offset="0" stop-color="#b890ff"/>
      <stop offset="1" stop-color="#5200a1"/>
    </linearGradient>
    <linearGradient id="New_Gradient_Swatch_1-2" x1="134.57" y1="51" x2="199.87" y2="68.34" xlink:href="#New_Gradient_Swatch_1"/>
    <style>.cls-2{fill:#230761}</style>
  </defs>
  <g id="Layer_1-2">
    <path class="cls-2" d="M329.54 46.11c-.49 0-.95-.06-1.38-.18-.43-.12-.82-.31-1.16-.55-.34-.25-.61-.55-.8-.92-.2-.36-.3-.79-.32-1.27 0-.08.03-.14.08-.2s.12-.08.21-.08h1.48c.11 0 .2.03.27.09s.12.15.15.26c.04.28.13.5.27.68.14.17.31.3.53.38.21.08.45.12.72.12.49 0 .87-.16 1.14-.48.26-.32.4-.78.4-1.37v-3.98h-4.33c-.09 0-.16-.03-.22-.09s-.09-.13-.09-.22v-1.09c0-.09.03-.17.09-.23s.13-.09.22-.09h6.12c.1 0 .17.03.23.09s.09.14.09.23v5.44c0 .75-.16 1.38-.47 1.89-.31.52-.75.91-1.3 1.18-.55.27-1.2.4-1.94.4ZM337.5 45.98c-.1 0-.17-.03-.23-.09s-.09-.14-.09-.23v-8.45c0-.09.03-.17.09-.23s.14-.09.23-.09h5.89c.1 0 .17.03.23.09s.09.14.09.23v1.04c0 .09-.03.16-.09.22s-.14.09-.23.09h-4.21v2.04h3.93c.1 0 .17.03.23.09s.09.14.09.23v.96c0 .09-.03.16-.09.22s-.14.09-.23.09h-3.93v2.11h4.32c.09 0 .17.03.23.09s.09.14.09.23v1.03c0 .1-.03.17-.09.23s-.14.09-.23.09h-6ZM348.93 45.98c-.14 0-.25-.04-.33-.12-.08-.08-.13-.17-.15-.29l-1.48-8.33s-.01-.03-.01-.05v-.04c0-.07.03-.13.08-.19s.12-.08.2-.08h1.37c.23 0 .35.09.38.27l.98 5.5 1.05-3.42c.03-.07.07-.14.13-.22.06-.08.16-.12.3-.12h.82c.14 0 .24.04.3.12s.1.15.12.22l1.07 3.41.96-5.49c.03-.18.16-.27.39-.27h1.37c.08 0 .14.03.19.08.05.06.08.12.08.19v.04s0 .03-.01.05l-1.48 8.33c-.02.11-.07.21-.15.29-.08.08-.19.12-.33.12h-1.05c-.14 0-.25-.04-.32-.11s-.12-.15-.15-.23l-1.39-4.03-1.38 4.03c-.03.08-.08.15-.15.23s-.18.11-.33.11h-1.04ZM360.55 45.98c-.1 0-.17-.03-.23-.09s-.09-.14-.09-.23v-8.45c0-.09.03-.17.09-.23s.14-.09.23-.09h1.47c.09 0 .17.03.23.09s.09.14.09.23v8.45c0 .1-.03.17-.09.23s-.14.09-.23.09h-1.47ZM369.63 46.11c-.83 0-1.53-.12-2.09-.36-.56-.24-.98-.56-1.27-.95-.29-.39-.44-.81-.46-1.25 0-.07.03-.13.08-.19s.12-.08.2-.08h1.39c.11 0 .2.02.26.07s.12.11.17.17c.06.15.16.29.29.43.13.14.32.25.55.34.23.09.52.14.87.14.56 0 .99-.09 1.27-.27.28-.18.42-.43.42-.74 0-.23-.08-.41-.23-.55-.15-.14-.39-.26-.72-.38-.32-.11-.76-.23-1.29-.36-.65-.14-1.2-.32-1.66-.54s-.8-.51-1.03-.86c-.23-.35-.34-.79-.34-1.31s.14-.98.43-1.38c.29-.4.69-.72 1.21-.95.52-.23 1.14-.34 1.86-.34.58 0 1.09.08 1.54.23.45.16.82.36 1.12.61.3.25.53.52.68.81s.24.56.25.83c0 .07-.03.13-.08.19s-.12.08-.2.08h-1.46c-.09 0-.17-.02-.23-.05-.07-.04-.12-.1-.17-.18-.05-.22-.21-.42-.46-.59-.26-.17-.59-.25-1-.25s-.76.08-1.01.23c-.25.16-.37.39-.37.72 0 .21.06.38.19.53.12.14.34.27.64.38s.7.23 1.19.36c.76.16 1.38.34 1.86.56.48.22.83.5 1.05.84s.34.77.34 1.29c0 .58-.16 1.08-.49 1.5s-.77.73-1.34.96c-.57.22-1.23.33-1.98.33ZM377.23 45.98c-.1 0-.17-.03-.23-.09s-.09-.14-.09-.23v-8.45c0-.09.03-.17.09-.23s.14-.09.23-.09h1.42c.09 0 .17.03.23.09s.09.14.09.23v3.25h3.52v-3.25c0-.09.03-.17.09-.23s.14-.09.23-.09h1.42c.1 0 .17.03.23.09s.09.14.09.23v8.45c0 .1-.03.17-.09.23s-.14.09-.23.09h-1.42c-.1 0-.17-.03-.23-.09s-.09-.14-.09-.23v-3.35h-3.52v3.35c0 .1-.03.17-.09.23s-.14.09-.23.09h-1.42ZM330.11 61.71c-.81 0-1.51-.14-2.07-.41-.57-.27-1.01-.67-1.32-1.2-.31-.52-.49-1.16-.52-1.92 0-.36-.01-.74-.01-1.14s0-.8.01-1.17c.03-.75.21-1.38.53-1.91s.76-.93 1.33-1.2 1.26-.42 2.05-.42c.58 0 1.11.07 1.59.22s.89.36 1.24.64.62.6.81.98c.19.37.29.79.31 1.25 0 .08-.03.14-.08.2-.06.05-.12.08-.2.08h-1.48c-.1 0-.19-.03-.25-.08s-.11-.14-.14-.26c-.13-.51-.35-.86-.65-1.05-.3-.19-.68-.29-1.13-.29-.54 0-.96.15-1.27.44-.31.29-.48.79-.51 1.47-.03.71-.03 1.44 0 2.18.03.68.2 1.17.51 1.47.31.29.74.44 1.27.44.45 0 .83-.1 1.14-.29s.52-.54.64-1.05c.04-.13.08-.22.14-.27.06-.05.14-.07.25-.07h1.48c.08 0 .14.03.2.08s.08.12.08.19c-.02.46-.12.88-.31 1.25s-.46.7-.81.97c-.35.28-.76.49-1.24.64-.48.15-1 .22-1.59.22ZM341.2 61.71c-.79 0-1.47-.13-2.04-.39-.57-.26-1.02-.65-1.34-1.18-.32-.52-.49-1.19-.52-1.98 0-.37-.01-.74-.01-1.11s0-.74.01-1.12c.03-.78.2-1.44.53-1.97s.78-.93 1.35-1.2c.58-.27 1.25-.4 2.02-.4s1.43.13 2.01.4 1.03.67 1.36 1.2c.33.53.5 1.19.52 1.97.02.38.03.76.03 1.12s0 .74-.03 1.11c-.03.8-.2 1.46-.52 1.98s-.77.92-1.34 1.18c-.57.26-1.25.39-2.03.39Zm0-1.68c.5 0 .92-.15 1.24-.46s.5-.8.51-1.48c.02-.38.03-.74.03-1.07s0-.69-.03-1.06c0-.45-.09-.82-.25-1.11-.16-.29-.36-.5-.62-.63s-.55-.2-.89-.2-.64.07-.9.2-.47.34-.62.63c-.15.29-.24.65-.25 1.11 0 .37-.01.73-.01 1.06s0 .69.01 1.07c.03.68.2 1.17.52 1.48.32.31.74.46 1.25.46ZM349.13 61.58c-.09 0-.16-.03-.23-.09-.06-.06-.1-.14-.1-.23v-8.45c0-.09.03-.17.1-.23s.14-.09.23-.09h1.21c.13 0 .23.04.29.1.07.07.11.12.14.16l2.39 4.41 2.42-4.41s.06-.09.12-.16c.07-.07.16-.1.29-.1h1.21c.1 0 .17.03.23.09s.09.14.09.23v8.45c0 .1-.03.17-.09.23s-.14.09-.23.09h-1.33c-.09 0-.16-.03-.22-.09s-.09-.14-.09-.23v-5.25l-1.65 3.09c-.04.08-.1.15-.17.21s-.16.09-.27.09h-.61c-.11 0-.2-.03-.27-.09s-.13-.13-.17-.21l-1.65-3.09v5.25c0 .1-.03.17-.09.23s-.13.09-.22.09h-1.33ZM361.86 61.58c-.09 0-.16-.03-.23-.09-.06-.06-.1-.14-.1-.23v-8.45c0-.09.03-.17.1-.23s.14-.09.23-.09h1.21c.13 0 .23.04.29.1.07.07.11.12.14.16l2.39 4.41 2.42-4.41s.06-.09.12-.16c.07-.07.16-.1.29-.1h1.21c.1 0 .17.03.23.09s.09.14.09.23v8.45c0 .1-.03.17-.09.23s-.14.09-.23.09h-1.33c-.09 0-.16-.03-.22-.09s-.09-.14-.09-.23v-5.25l-1.65 3.09c-.04.08-.1.15-.17.21s-.16.09-.27.09h-.61c-.11 0-.2-.03-.27-.09s-.13-.13-.17-.21l-1.65-3.09v5.25c0 .1-.03.17-.09.23s-.13.09-.22.09h-1.33ZM377.99 61.71c-.76 0-1.43-.13-2-.38-.57-.25-1.01-.65-1.33-1.18-.31-.53-.47-1.21-.47-2.04V52.8c0-.09.03-.17.09-.23s.14-.09.23-.09h1.42c.09 0 .17.03.23.09s.09.14.09.23v5.29c0 .64.15 1.12.46 1.43.3.31.73.47 1.27.47s.96-.16 1.26-.47c.3-.31.46-.79.46-1.43V52.8c0-.09.03-.17.1-.23s.14-.09.23-.09h1.43c.09 0 .16.03.22.09s.09.14.09.23v5.31c0 .82-.16 1.5-.47 2.04s-.75.93-1.31 1.18c-.56.26-1.23.38-2 .38ZM386.02 61.58c-.1 0-.17-.03-.23-.09s-.09-.14-.09-.23v-8.45c0-.09.03-.17.09-.23s.14-.09.23-.09h1.18c.13 0 .23.03.29.09.06.06.1.11.12.14l3.47 5.42v-5.33c0-.09.03-.17.09-.23s.13-.09.22-.09h1.33c.09 0 .17.03.23.09s.09.14.09.23v8.45c0 .09-.03.16-.09.23s-.14.1-.23.1h-1.2c-.13 0-.22-.03-.28-.1-.06-.06-.1-.11-.12-.14l-3.46-5.25v5.16c0 .1-.03.17-.09.23s-.14.09-.23.09h-1.31ZM396.52 61.58c-.08 0-.14-.03-.19-.08-.05-.06-.08-.12-.08-.19 0-.04 0-.08.01-.12l3.09-8.36c.03-.1.08-.18.16-.25s.19-.1.33-.1h1.66c.14 0 .25.04.33.1s.13.15.16.25l3.09 8.36s.01.07.01.12c0 .07-.03.13-.08.19s-.12.08-.19.08h-1.35c-.13 0-.23-.03-.29-.09s-.1-.12-.12-.17l-.56-1.46h-3.67l-.56 1.46c-.02.05-.06.11-.12.17s-.16.09-.29.09h-1.35Zm2.8-3.39h2.69l-1.34-3.75-1.35 3.75ZM408.61 61.58c-.1 0-.17-.03-.23-.09s-.09-.14-.09-.23v-8.45c0-.09.03-.17.09-.23s.14-.09.23-.09h1.44c.1 0 .17.03.23.09s.09.14.09.23v7.04h4.03c.09 0 .17.03.23.09s.09.14.09.23v1.09c0 .1-.03.17-.09.23s-.14.09-.23.09h-5.8ZM326.82 77.19c-.1 0-.17-.03-.23-.09s-.09-.14-.09-.23v-8.45c0-.09.03-.17.09-.23s.14-.09.23-.09h5.8c.09 0 .17.03.23.09s.09.14.09.23v1.11c0 .1-.03.17-.09.23s-.14.09-.23.09h-4.1v2.2h3.84c.09 0 .17.03.23.09s.09.14.09.23v1.11c0 .09-.03.16-.09.22s-.14.09-.23.09h-3.84v3.08c0 .1-.03.17-.09.23s-.14.09-.23.09h-1.38ZM340.21 77.32c-.76 0-1.43-.13-2-.38-.57-.25-1.01-.65-1.33-1.18-.31-.53-.47-1.21-.47-2.04v-5.31c0-.09.03-.17.09-.23s.14-.09.23-.09h1.42c.09 0 .17.03.23.09s.09.14.09.23v5.29c0 .64.15 1.12.46 1.43.3.31.73.47 1.27.47s.96-.16 1.26-.47c.3-.31.46-.79.46-1.43v-5.29c0-.09.03-.17.1-.23s.14-.09.23-.09h1.43c.09 0 .16.03.22.09s.09.14.09.23v5.31c0 .82-.16 1.5-.47 2.04s-.75.93-1.31 1.18c-.56.26-1.23.38-2 .38ZM348.25 77.19c-.1 0-.17-.03-.23-.09s-.09-.14-.09-.23v-8.45c0-.09.03-.17.09-.23s.14-.09.23-.09h1.18c.13 0 .23.03.29.09.06.06.1.11.12.14l3.47 5.42v-5.33c0-.09.03-.17.09-.23s.13-.09.22-.09h1.33c.09 0 .17.03.23.09s.09.14.09.23v8.45c0 .09-.03.16-.09.23s-.14.1-.23.1h-1.2c-.13 0-.22-.03-.28-.1-.06-.06-.1-.11-.12-.14l-3.46-5.25v5.16c0 .1-.03.17-.09.23s-.14.09-.23.09h-1.31ZM359.6 77.19c-.1 0-.17-.03-.23-.09s-.09-.14-.09-.23v-8.45c0-.09.03-.17.09-.23s.14-.09.23-.09h3.26c.87 0 1.59.14 2.17.41.58.27 1.03.67 1.33 1.2s.47 1.17.49 1.94c0 .38.01.72.01 1s0 .62-.01.99c-.03.81-.19 1.47-.48 2s-.73.92-1.3 1.18-1.29.38-2.15.38h-3.33Zm1.74-1.68h1.52c.43 0 .79-.06 1.07-.19s.48-.34.62-.62c.13-.28.21-.65.21-1.1 0-.25.02-.48.02-.68v-.6c0-.2-.01-.42-.02-.66-.02-.65-.18-1.13-.5-1.44s-.8-.46-1.46-.46h-1.46v5.75Z"/>
    <path d="M282.89 0c-16.24 0-29.51 12.76-30.26 28.82-.04.49-.04.99-.04 1.48v17.32c0 .58 0 1.13.05 1.71.88 15.95 14.08 28.61 30.25 28.61s30.3-13.57 30.3-30.32V30.3c0-16.74-13.56-30.3-30.3-30.3Zm15.72 47.62c0 8.66-7.04 15.72-15.72 15.72s-15.72-7.06-15.72-15.72V30.3c0-8.68 7.06-15.72 15.72-15.72s15.72 7.04 15.72 15.72v17.32Zm-54.3-8.23c1.04 3.01 1.56 6.3 1.56 9.88v.64c0 3.79-.63 7.37-1.88 10.74-1.25 3.36-3.08 6.32-5.48 8.86-2.4 2.54-5.35 4.56-8.86 6.06s-7.55 2.25-12.13 2.25-8.63-.63-12.13-1.88c-3.51-1.25-6.46-3.01-8.86-5.26-2.4-2.25-4.22-4.94-5.48-8.05-1.25-3.11-1.88-6.49-1.88-10.14v-2.58h14.17v1.29c0 3.79 1.16 6.92 3.49 9.39 2.32 2.47 5.74 3.7 10.25 3.7s8.07-1.22 10.68-3.65c2.61-2.43 3.92-5.8 3.92-10.09s-.97-7.14-2.9-9.18-4.47-3.06-7.62-3.06c-2.08 0-3.76.45-5.05 1.34-1.29.9-2.11 1.95-2.47 3.17h-23.19V1.17h50.24V14.7h-36.07v20.4h1.93c1-2.79 2.88-5.21 5.64-7.25 2.75-2.04 6.46-3.06 11.11-3.06 3.51 0 6.66.61 9.45 1.83 2.79 1.22 5.15 2.9 7.09 5.05 1.93 2.15 3.42 4.72 4.45 7.73Z" fill="url(#New_Gradient_Swatch_17)"/>
    <path fill="url(#New_Gradient_Swatch_1)" d="M60.64.83v42.01H46.05V14.06l-27.69.04V.83h42.28z"/>
    <path class="cls-2" d="M60.64 47.78c0 16.75-13.57 30.32-30.32 30.32S0 64.53 0 47.78h14.59c0 8.67 7.06 15.73 15.73 15.73s15.73-7.06 15.73-15.73h14.59ZM182.51.84v13.27L152 14.06v18.12h-14.58V.84h45.09zM113.94 47.67h14.6c0 16.75-13.57 30.34-30.33 30.34s-29.4-12.67-30.29-28.63c-.04-.57-.05-1.13-.05-1.71V30.33c0-.49.01-.98.04-1.47C68.67 12.79 81.94 0 98.21 0s30.33 13.57 30.33 30.33h-14.6c0-8.68-7.05-15.73-15.73-15.73s-15.74 7.05-15.74 15.73v17.34c0 8.68 7.06 15.74 15.74 15.74s15.73-7.06 15.73-15.74Z"/>
    <path fill="url(#New_Gradient_Swatch_1-2)" d="M137.7 36.98v40.28l14.59-.05v-27l25.22.04V36.98H137.7z"/>
  </g>
</svg>
