<?xml version="1.0" encoding="utf-8"?>
<!-- Generator: Adobe Illustrator 16.0.3, SVG Export Plug-In . SVG Version: 6.00 Build 0)  -->
<!DOCTYPE svg PUBLIC "-//W3C//DTD SVG 1.1//EN" "http://www.w3.org/Graphics/SVG/1.1/DTD/svg11.dtd">
<svg version="1.1" id="Layer_1" xmlns="http://www.w3.org/2000/svg" xmlns:xlink="http://www.w3.org/1999/xlink" x="0px" y="0px"
	 width="338px" height="31px" viewBox="0 0 338 31" enable-background="new 0 0 338 31" xml:space="preserve">
<g>
	<path fill="#814C9E" d="M15.203,26.888c-2.392-0.005-4.561-0.845-6.316-2.223c-1.133,0.907-2.41,1.704-3.764,2.188
		c2.695,2.401,6.233,3.875,10.124,3.875c0.015,0,0.026-0.005,0.04-0.005l-0.083-3.824C15.203,26.896,15.203,26.892,15.203,26.888
		L15.203,26.888z"/>
	<path fill="#814C9E" d="M21.869,4.981c0.231,1.131,0.319,2.389,0.39,3.064c0.028,0.251,0.026,0.446,0.007,0.613
		c1.446-1.189,3.145-2.203,4.937-2.621C24.555,2.691,20.54,0.49,15.993,0.272l0.076,3.392C18.605,3.526,21.607,3.916,21.869,4.981
		L21.869,4.981z"/>
	<path fill="#814C9E" d="M20.55,8.123c-1.357-1.446-2.866-2.166-4.435-2.421l0.014,0.579c0.107,4.828-0.631,9.622-3.147,13.854
		c-0.326,0.539-0.812,1.204-1.402,1.901c1.042,0.85,2.271,1.466,3.681,1.76c0.233-3.764,1.111-7.426,3.086-10.752
		c0.633-1.046,1.821-2.54,3.349-3.901C21.219,8.965,20.705,8.289,20.55,8.123L20.55,8.123z"/>
	<path fill="#814C9E" d="M11.759,6.387l-0.003-0.239c-3.107,1.408-4.247,5.317-3.895,8.506c0.253,2.3,1.067,4.37,2.336,5.975
		c0.65-1.107,1.088-2.335,1.285-3.461C12.058,13.693,11.84,9.909,11.759,6.387L11.759,6.387z"/>
	<path fill="#814C9E" d="M5.235,24.032c0.831-0.02,1.591-0.255,2.278-0.643c-1.595-1.761-2.661-4.035-2.93-6.499
		c-0.586-5.307,2.398-10.223,7.14-12.256l-0.088-3.953C4.962,2.308,0,8.308,0,15.479c0,2.727,0.726,5.274,1.979,7.489
		C2.509,23.555,3.414,24.07,5.235,24.032L5.235,24.032z"/>
	<path fill="#814C9E" d="M26.095,9.149c-3.457,0.077-5.724,3.852-6.242,6.866c-0.416,2.483-0.419,5.122-0.364,7.719
		c3.476-0.828,5.53-3.524,6.249-3.601c0.162-0.021,0.445,0.111,0.463,0.267c0.076,0.694-1.798,4.161-6.652,5.744
		c0.007,0.215,0.016,0.435,0.017,0.646l0.074,3.284c6.278-1.886,10.853-7.703,10.853-14.597c0-1.667-0.278-3.262-0.771-4.762
		C29.266,9.963,28.428,9.096,26.095,9.149L26.095,9.149z"/>
	<path fill="#696C71" d="M58.497,23.239c-0.585,0-1.076-0.492-1.076-1.057V8.713c0-0.563,0.491-1.054,1.076-1.054h9.637V9.53h-8.585
		v4.748h6.994c0.512,0,0.936,0.421,0.936,0.937c0,0.514-0.423,0.914-0.936,0.914h-6.994v5.236h8.656v1.874H58.497L58.497,23.239z"/>
	<path fill="#696C71" d="M85.911,22.604c-0.14,0.471-0.513,0.748-0.981,0.748c-0.47,0-0.82-0.254-0.936-0.628l-3.601-11.367
		l-3.58,11.367c-0.117,0.374-0.467,0.628-0.936,0.628c-0.491,0-0.865-0.303-0.981-0.748L70.732,7.659h2.083l3.179,11.508
		l3.51-10.992c0.117-0.372,0.467-0.633,0.891-0.633c0.443,0,0.796,0.261,0.912,0.633l3.508,10.992l3.18-11.508h2.083L85.911,22.604
		L85.911,22.604z"/>
	<polygon fill="#696C71" points="92.789,23.239 92.789,7.659 94.916,7.659 94.916,23.239 92.789,23.239 	"/>
	<path fill="#696C71" d="M103.837,23.491c-2.057,0-4.211-0.417-6.223-1.167l0.494-1.682c1.846,0.581,3.859,1.004,5.729,1.004
		c2.595,0,3.952-0.914,3.952-2.197c0-1.169-1.052-1.755-4.677-3.438c-3.625-1.684-5.052-2.762-5.052-4.865
		c0-2.643,2.058-3.721,5.94-3.721c1.614,0,4.094,0.329,5.521,0.75l-0.327,1.731c-1.567-0.376-3.531-0.631-5.146-0.631
		c-2.736,0-3.86,0.516-3.86,1.8c0,1.264,0.819,1.801,4.656,3.556c4.045,1.848,5.075,2.781,5.075,4.701
		C109.919,22.114,107.251,23.491,103.837,23.491L103.837,23.491z"/>
	<polygon fill="#696C71" points="122.788,23.239 122.788,16.176 114.508,16.176 114.508,23.239 112.381,23.239 112.381,7.659 
		114.508,7.659 114.508,14.278 122.788,14.278 122.788,7.659 124.916,7.659 124.916,23.239 122.788,23.239 	"/>
	<path fill="#696C71" d="M147.617,9.695c-1.076-0.352-2.571-0.516-3.788-0.516c-3.742,0-6.596,2.434-6.596,6.175
		c0,3.743,2.808,6.15,6.596,6.15c1.194,0,2.574-0.185,3.742-0.561l0.493,1.709c-1.242,0.491-2.903,0.727-4.397,0.727
		c-4.819,0-8.583-3.298-8.583-8.025c0-4.725,3.671-8.045,8.583-8.045c1.567,0,3.155,0.21,4.419,0.678L147.617,9.695L147.617,9.695z"
		/>
	<path fill="#696C71" d="M157.838,9.202c-3.391,0-5.729,2.575-5.729,6.13c0,3.576,2.339,6.15,5.729,6.15
		c3.393,0,5.731-2.574,5.731-6.15C163.569,11.777,161.23,9.202,157.838,9.202L157.838,9.202z M157.838,23.38
		c-4.583,0-7.857-3.51-7.857-8.048c0-4.514,3.274-8.022,7.857-8.022c4.609,0,7.86,3.509,7.86,8.022
		C165.698,19.87,162.447,23.38,157.838,23.38L157.838,23.38z"/>
	<path fill="#696C71" d="M181.581,23.119V11.544l-4.468,7.202c-0.141,0.212-0.4,0.447-0.82,0.447c-0.421,0-0.68-0.26-0.819-0.472
		l-4.466-7.178v11.575h-2.034V8.407c0-0.56,0.396-1.029,1.005-1.029c0.371,0,0.676,0.188,0.865,0.493l5.449,8.654l5.452-8.654
		c0.184-0.305,0.489-0.493,0.888-0.493c0.562,0,0.981,0.445,0.981,1.006v14.735H181.581L181.581,23.119z"/>
	<path fill="#696C71" d="M200.713,23.119V11.544l-4.469,7.202c-0.143,0.212-0.396,0.447-0.819,0.447
		c-0.419,0-0.678-0.26-0.817-0.472l-4.468-7.178v11.575h-2.038V8.407c0-0.56,0.402-1.029,1.009-1.029
		c0.374,0,0.676,0.188,0.862,0.493l5.452,8.654l5.452-8.654c0.184-0.305,0.486-0.493,0.884-0.493c0.562,0,0.985,0.445,0.985,1.006
		v14.735H200.713L200.713,23.119z"/>
	<path fill="#696C71" d="M213.413,23.38c-4.142,0-6.413-2.949-6.413-6.179V7.544h2.131v9.706c0,2.503,1.636,4.255,4.281,4.255
		c2.621,0,4.283-1.752,4.283-4.255V7.544h2.124v9.657C219.82,20.453,217.525,23.38,213.413,23.38L213.413,23.38z"/>
	<path fill="#696C71" d="M235.959,23.237c-0.281,0-0.584-0.07-0.795-0.354l-9.03-11.692v11.929h-2.059V8.432
		c0-0.584,0.493-1.054,1.055-1.054c0.326,0,0.607,0.094,0.819,0.375l9.002,11.671V7.544h2.059v14.664
		C237.011,22.813,236.52,23.237,235.959,23.237L235.959,23.237z"/>
	<path fill="#696C71" d="M246.787,10.467l-2.786,6.993h5.567L246.787,10.467L246.787,10.467z M251.817,23.119l-1.614-3.999h-6.855
		l-1.614,3.999h-2.151l6.293-15.132c0.166-0.396,0.518-0.609,0.912-0.609c0.396,0,0.727,0.213,0.889,0.609l6.293,15.132H251.817
		L251.817,23.119z"/>
	<path fill="#696C71" d="M257.594,23.119c-0.583,0-1.052-0.49-1.052-1.051V7.544h2.131v13.68h8.466v1.896H257.594L257.594,23.119z"
		/>
	<path fill="#696C71" d="M279.105,9.023v4.75h7.161c0.514,0,0.934,0.422,0.934,0.935c0,0.514-0.42,0.912-0.934,0.912h-7.161v7.11
		h-2.13V8.208c0-0.564,0.495-1.056,1.08-1.056h9.962v1.871H279.105L279.105,9.023z"/>
	<path fill="#696C71" d="M297.397,22.99c-4.139,0-6.408-2.949-6.408-6.178v-9.66h2.128v9.707c0,2.502,1.639,4.256,4.28,4.256
		c2.62,0,4.279-1.754,4.279-4.256V7.152h2.128v9.66C303.805,20.066,301.515,22.99,297.397,22.99L297.397,22.99z"/>
	<path fill="#696C71" d="M319.313,22.848c-0.283,0-0.586-0.07-0.797-0.351l-9.031-11.692V22.73h-2.056V8.04
		c0-0.582,0.49-1.052,1.052-1.052c0.328,0,0.61,0.095,0.824,0.376l8.997,11.675V7.152h2.059V21.82
		C320.36,22.429,319.871,22.848,319.313,22.848L319.313,22.848z"/>
	<path fill="#696C71" d="M328.785,9.048h-1.803v11.788h1.803c3.738,0,7.087-1.988,7.087-5.894S332.523,9.048,328.785,9.048
		L328.785,9.048z M328.434,22.73h-2.5c-0.59,0-1.079-0.491-1.079-1.052V8.208c0-0.564,0.489-1.056,1.079-1.056h2.5
		c5.684,0,9.566,3.11,9.566,7.79C338,19.62,334.117,22.73,328.434,22.73L328.434,22.73z"/>
	<path fill="#696C71" d="M51.026,7.49v9.705c0,2.504-1.661,4.257-4.28,4.257c-1.884,0-3.243-0.902-3.877-2.321h-2.224
		c0.74,2.358,2.838,4.194,6.101,4.194c4.116,0,6.409-2.925,6.409-6.176V7.49H51.026L51.026,7.49z"/>
	<path fill="#696C71" d="M58.497,23.239c-0.585,0-1.076-0.492-1.076-1.057V8.713c0-0.563,0.491-1.054,1.076-1.054h9.637V9.53h-8.585
		v4.748h6.994c0.512,0,0.936,0.421,0.936,0.937c0,0.514-0.423,0.914-0.936,0.914h-6.994v5.236h8.656v1.874H58.497L58.497,23.239z"/>
	<path fill="#696C71" d="M85.911,22.604c-0.14,0.471-0.513,0.748-0.981,0.748c-0.47,0-0.82-0.254-0.936-0.628l-3.601-11.367
		l-3.58,11.367c-0.117,0.374-0.467,0.628-0.936,0.628c-0.491,0-0.865-0.303-0.981-0.748L70.732,7.659h2.083l3.179,11.508
		l3.51-10.992c0.117-0.372,0.467-0.633,0.891-0.633c0.443,0,0.796,0.261,0.912,0.633l3.508,10.992l3.18-11.508h2.083L85.911,22.604
		L85.911,22.604z"/>
	<polygon fill="#696C71" points="92.789,23.239 92.789,7.659 94.916,7.659 94.916,23.239 92.789,23.239 	"/>
	<path fill="#696C71" d="M103.837,23.491c-2.057,0-4.211-0.417-6.223-1.167l0.494-1.682c1.846,0.581,3.859,1.004,5.729,1.004
		c2.595,0,3.952-0.914,3.952-2.197c0-1.169-1.052-1.755-4.677-3.438c-3.625-1.684-5.052-2.762-5.052-4.865
		c0-2.643,2.058-3.721,5.94-3.721c1.614,0,4.094,0.329,5.521,0.75l-0.327,1.731c-1.567-0.376-3.531-0.631-5.146-0.631
		c-2.736,0-3.86,0.516-3.86,1.8c0,1.264,0.819,1.801,4.656,3.556c4.045,1.848,5.075,2.781,5.075,4.701
		C109.919,22.114,107.251,23.491,103.837,23.491L103.837,23.491z"/>
	<polygon fill="#696C71" points="122.788,23.239 122.788,16.176 114.508,16.176 114.508,23.239 112.381,23.239 112.381,7.659 
		114.508,7.659 114.508,14.278 122.788,14.278 122.788,7.659 124.916,7.659 124.916,23.239 122.788,23.239 	"/>
	<path fill="#696C71" d="M147.617,9.695c-1.076-0.352-2.571-0.516-3.788-0.516c-3.742,0-6.596,2.434-6.596,6.175
		c0,3.743,2.808,6.15,6.596,6.15c1.194,0,2.574-0.185,3.742-0.561l0.493,1.709c-1.242,0.491-2.903,0.727-4.397,0.727
		c-4.819,0-8.583-3.298-8.583-8.025c0-4.725,3.671-8.045,8.583-8.045c1.567,0,3.155,0.21,4.419,0.678L147.617,9.695L147.617,9.695z"
		/>
	<path fill="#696C71" d="M157.838,9.202c-3.391,0-5.729,2.575-5.729,6.13c0,3.576,2.339,6.15,5.729,6.15
		c3.393,0,5.731-2.574,5.731-6.15C163.569,11.777,161.23,9.202,157.838,9.202L157.838,9.202z M157.838,23.38
		c-4.583,0-7.857-3.51-7.857-8.048c0-4.514,3.274-8.022,7.857-8.022c4.609,0,7.86,3.509,7.86,8.022
		C165.698,19.87,162.447,23.38,157.838,23.38L157.838,23.38z"/>
	<path fill="#696C71" d="M181.581,23.119V11.544l-4.468,7.202c-0.141,0.212-0.4,0.447-0.82,0.447c-0.421,0-0.68-0.26-0.819-0.472
		l-4.466-7.178v11.575h-2.034V8.407c0-0.56,0.396-1.029,1.005-1.029c0.371,0,0.676,0.188,0.865,0.493l5.449,8.654l5.452-8.654
		c0.184-0.305,0.489-0.493,0.888-0.493c0.562,0,0.981,0.445,0.981,1.006v14.735H181.581L181.581,23.119z"/>
	<path fill="#696C71" d="M200.713,23.119V11.544l-4.469,7.202c-0.143,0.212-0.396,0.447-0.819,0.447
		c-0.419,0-0.678-0.26-0.817-0.472l-4.468-7.178v11.575h-2.038V8.407c0-0.56,0.402-1.029,1.009-1.029
		c0.374,0,0.676,0.188,0.862,0.493l5.452,8.654l5.452-8.654c0.184-0.305,0.486-0.493,0.884-0.493c0.562,0,0.985,0.445,0.985,1.006
		v14.735H200.713L200.713,23.119z"/>
	<path fill="#696C71" d="M213.413,23.38c-4.142,0-6.413-2.949-6.413-6.179V7.544h2.131v9.706c0,2.503,1.636,4.255,4.281,4.255
		c2.621,0,4.283-1.752,4.283-4.255V7.544h2.124v9.657C219.82,20.453,217.525,23.38,213.413,23.38L213.413,23.38z"/>
	<path fill="#696C71" d="M235.959,23.237c-0.281,0-0.584-0.07-0.795-0.354l-9.03-11.692v11.929h-2.059V8.432
		c0-0.584,0.493-1.054,1.055-1.054c0.326,0,0.607,0.094,0.819,0.375l9.002,11.671V7.544h2.059v14.664
		C237.011,22.813,236.52,23.237,235.959,23.237L235.959,23.237z"/>
	<path fill="#696C71" d="M246.787,10.467l-2.786,6.993h5.567L246.787,10.467L246.787,10.467z M251.817,23.119l-1.614-3.999h-6.855
		l-1.614,3.999h-2.151l6.293-15.132c0.166-0.396,0.518-0.609,0.912-0.609c0.396,0,0.727,0.213,0.889,0.609l6.293,15.132H251.817
		L251.817,23.119z"/>
	<path fill="#696C71" d="M257.594,23.119c-0.583,0-1.052-0.49-1.052-1.051V7.544h2.131v13.68h8.466v1.896H257.594L257.594,23.119z"
		/>
	<path fill="#696C71" d="M279.105,9.023v4.75h7.161c0.514,0,0.934,0.422,0.934,0.935c0,0.514-0.42,0.912-0.934,0.912h-7.161v7.11
		h-2.13V8.208c0-0.564,0.495-1.056,1.08-1.056h9.962v1.871H279.105L279.105,9.023z"/>
	<path fill="#696C71" d="M297.397,22.99c-4.139,0-6.408-2.949-6.408-6.178v-9.66h2.128v9.707c0,2.502,1.639,4.256,4.28,4.256
		c2.62,0,4.279-1.754,4.279-4.256V7.152h2.128v9.66C303.805,20.066,301.515,22.99,297.397,22.99L297.397,22.99z"/>
	<path fill="#696C71" d="M319.313,22.848c-0.283,0-0.586-0.07-0.797-0.351l-9.031-11.692V22.73h-2.056V8.04
		c0-0.582,0.49-1.052,1.052-1.052c0.328,0,0.61,0.095,0.824,0.376l8.997,11.675V7.152h2.059V21.82
		C320.36,22.429,319.871,22.848,319.313,22.848L319.313,22.848z"/>
	<path fill="#696C71" d="M328.785,9.048h-1.803v11.788h1.803c3.738,0,7.087-1.988,7.087-5.894S332.523,9.048,328.785,9.048
		L328.785,9.048z M328.434,22.73h-2.5c-0.59,0-1.079-0.491-1.079-1.052V8.208c0-0.564,0.489-1.056,1.079-1.056h2.5
		c5.684,0,9.566,3.11,9.566,7.79C338,19.62,334.117,22.73,328.434,22.73L328.434,22.73z"/>
	<path fill="#696C71" d="M51.026,7.49v9.705c0,2.504-1.661,4.257-4.28,4.257c-1.884,0-3.243-0.902-3.877-2.321h-2.224
		c0.74,2.358,2.838,4.194,6.101,4.194c4.116,0,6.409-2.925,6.409-6.176V7.49H51.026L51.026,7.49z"/>
</g>
</svg>
