<?xml version="1.0" encoding="UTF-8"?>
<svg width="460px" height="41px" viewBox="0 0 460 41" version="1.1" xmlns="http://www.w3.org/2000/svg" xmlns:xlink="http://www.w3.org/1999/xlink">
    <!-- Generator: sketchtool 51.3 (57544) - http://www.bohemiancoding.com/sketch -->
    <title>0B8D9F40-A952-467F-BCF9-A4BC9A9E03E6</title>
    <desc>Created with sketchtool.</desc>
    <defs>
        <polygon id="path-1" points="0.740307692 0.113142857 11.3667692 0.113142857 11.3667692 5.89714286 0.740307692 5.89714286"></polygon>
        <polygon id="path-3" points="0.0990857143 0.1048165 14.0970658 0.1048165 14.0970658 8.2 0.0990857143 8.2"></polygon>
        <polygon id="path-5" points="0 0.0142406667 16.1475309 0.0142406667 16.1475309 31.4658286 0 31.4658286"></polygon>
        <polygon id="path-7" points="0.0587884687 0.0705700772 15.2479734 0.0705700772 15.2479734 28.2328187 0.0587884687 28.2328187"></polygon>
    </defs>
    <g id="home" stroke="none" stroke-width="1" fill="none" fill-rule="evenodd">
        <g id="home---hifi-teal-1" transform="translate(-130.000000, -17.000000)">
            <g id="Nav" transform="translate(0.000000, -2.000000)">
                <g id="JCF-Horizontal" transform="translate(130.000000, 19.000000)">
                    <g id="Group-3" transform="translate(4.000000, 29.000000)">
                        <mask id="mask-2" fill="white">
                            <use xlink:href="#path-1"></use>
                        </mask>
                        <g id="Clip-2"></g>
                    </g>
                    <g id="Fixed-logo">
                        <g id="Group-16">
                            <g id="Group-3" transform="translate(6.976744, 32.663333)">
                                <mask id="mask-4" fill="white">
                                    <use xlink:href="#path-3"></use>
                                </mask>
                                <g id="Clip-2"></g>
                                <path d="M13.9827668,3.072909 C10.6899827,3.068194 7.70118538,1.9436665 5.28388306,0.1048165 C3.72260731,1.3165715 1.96434817,2.3821615 0.0990857143,3.025759 C3.81015548,6.2343165 8.68367043,8.2004715 14.0411322,8.2004715 C14.0630193,8.2004715 14.0776106,8.1957565 14.0970658,8.1957565 L13.9827668,3.0894115 L13.9827668,3.072909 Z" id="Fill-1" fill="#5A3F98" mask="url(#mask-4)"></path>
                            </g>
                            <path d="M30.0920196,6.29224842 C30.4087148,7.8045586 30.5295908,9.48201965 30.6262916,10.3856309 C30.6625544,10.7230105 30.6601369,10.9825333 30.6359617,11.2066667 C32.6159109,9.61649965 34.9415656,8.26226246 37.3953488,7.70310877 C33.7690682,3.2322386 28.2716267,0.290193684 22.0465116,0 L22.150465,4.52985263 C25.6220243,4.34582737 29.7342266,4.86723228 30.0920196,6.29224842" id="Fill-4" fill="#5A3F98"></path>
                            <path d="M28.279768,10.6368488 C26.4068002,8.69270947 24.3268073,7.72420049 22.1615688,7.38 L22.1810536,8.16097905 C22.3296245,14.6509387 21.3115483,21.0957963 17.8408343,26.7857865 C17.3902503,27.5097944 16.7204634,28.4023419 15.9069767,29.3423653 C17.3439742,30.4817877 19.039144,31.3126164 20.9851794,31.7066667 C21.3066772,26.6481063 22.5171648,21.7248523 25.2425887,17.2526197 C26.1145295,15.8449584 27.7536808,13.8391003 29.8604651,12.0065294 C29.2028561,11.7691498 28.4940998,10.8599857 28.279768,10.6368488" id="Fill-6" fill="#5A3F98"></path>
                            <path d="M16.177092,8.24849409 L16.1722471,7.92666667 C11.9087858,9.81503638 10.3463242,15.0541975 10.828386,19.3278763 C11.1772146,22.4089005 12.2915284,25.1822957 14.0332492,27.3333333 C14.9247002,25.8496143 15.5254607,24.2049815 15.7967719,22.6952323 C16.5864812,18.0405666 16.2885234,12.9694184 16.177092,8.24849409" id="Fill-8" fill="#5A3F98"></path>
                            <g id="Group-12" transform="translate(0.000000, 0.546667)">
                                <mask id="mask-6" fill="white">
                                    <use xlink:href="#path-5"></use>
                                </mask>
                                <g id="Clip-11"></g>
                                <path d="M7.21032159,31.4632907 C8.35574352,31.4371327 9.40145781,31.1184807 10.3474645,30.6000767 C8.15146445,28.2268327 6.68260066,25.1639687 6.31295282,21.8466587 C5.50556412,14.6983907 9.61546445,8.07803867 16.1475309,5.34096067 L16.0259362,0.0142406667 C6.83580997,2.20437867 -0.000243189369,10.2848227 -0.000243189369,19.9442587 C-0.000243189369,23.6158907 0.999265116,27.0473447 2.72590963,30.0293567 C3.45547774,30.8188527 4.7030392,31.5132287 7.21032159,31.4632907" id="Fill-10" fill="#5A3F98" mask="url(#mask-6)"></path>
                            </g>
                            <g id="Group-15" transform="translate(26.651163, 11.890000)">
                                <mask id="mask-8" fill="white">
                                    <use xlink:href="#path-7"></use>
                                </mask>
                                <g id="Clip-14"></g>
                                <path d="M9.19085581,0.0736822564 C4.42920797,0.178221744 1.30665648,5.25789046 0.594111628,9.31354738 C0.0201847176,12.6540592 0.0177528239,16.2084017 0.0931415282,19.700971 C4.8815402,18.5866751 7.70983256,14.9586797 8.69961329,14.8541402 C8.92334751,14.8280053 9.3124505,15.0061976 9.33920133,15.2152766 C9.44377276,16.1490043 6.86110166,20.812891 0.175825914,22.9416951 C0.185553488,23.2339305 0.197712957,23.5285417 0.20014485,23.8136494 L0.302284385,28.2328187 C8.94766645,25.6953602 15.248703,17.8691541 15.248703,8.59127456 C15.248703,6.34842738 14.8668957,4.2006161 14.1883973,2.18347918 C13.5585369,1.16897097 12.4033874,0.00240533333 9.19085581,0.0736822564" id="Fill-13" fill="#5A3F98" mask="url(#mask-8)"></path>
                            </g>
                        </g>
                    </g>
                    <g id="logotype" transform="translate(56.000000, 9.000000)" fill="#44423F">
                        <path d="M23.2564408,21.6470588 C22.4454468,21.6470588 21.7643098,20.9625378 21.7643098,20.1798775 L21.7643098,1.4622744 C21.7643098,0.67961411 22.4454468,0 23.2564408,0 L36.6292674,0 L36.6292674,2.59823589 L24.7167202,2.59823589 L24.7167202,9.19564507 L34.4216975,9.19564507 C35.1346862,9.19564507 35.720268,9.78202692 35.720268,10.4984432 C35.720268,11.2124061 35.1346862,11.7668927 34.4216975,11.7668927 L24.7167202,11.7668927 L24.7167202,19.043916 L36.7272727,19.043916 L36.7272727,21.6470588 L23.2564408,21.6470588" id="Fill-9"></path>
                        <path d="M60.7954487,20.6220027 C60.5992799,21.2674979 60.0753353,21.6470588 59.4173007,21.6470588 C58.7542997,21.6470588 58.2626361,21.2989265 58.1012314,20.7863985 L53.0356062,5.22198426 L48.0022619,20.7863985 C47.8358909,21.2989265 47.3442272,21.6470588 46.6861926,21.6470588 C45.995877,21.6470588 45.4694493,21.2312342 45.3055614,20.6220027 L39.4478114,0.161978215 L42.377928,0.161978215 L46.8475973,15.9173817 L51.7840987,0.867913125 C51.9479866,0.35538504 52.4396502,0 53.0356062,0 C53.6588767,0 54.1555066,0.35538504 54.3169114,0.867913125 L59.2509296,15.9173817 L63.7230821,0.161978215 L66.6531987,0.161978215 L60.7954487,20.6220027" id="Fill-10"></path>
                        <polygon id="Fill-11" points="70.7340067 21.6470588 73.4545455 21.6470588 73.4545455 0 70.7340067 0"></polygon>
                        <path d="M85.1196018,21.6470588 C82.1634705,21.6470588 79.0677792,21.0856009 76.1750842,20.0745008 L76.8855707,17.8072574 C79.5372078,18.5923469 82.4299029,19.1609421 85.1196018,19.1609421 C88.8471185,19.1609421 90.798419,17.9309685 90.798419,16.1990135 C90.798419,14.6240763 89.2860977,13.8366078 84.0767091,11.5669854 C78.8673205,9.29736299 76.8170595,7.848516 76.8170595,5.01267754 C76.8170595,1.45122606 79.7731908,0 85.3530474,0 C87.6722783,0 91.2348607,0.442504994 93.2876592,1.01110012 L92.8156932,3.34257805 C90.5649734,2.83583846 87.7407895,2.49087489 85.4215586,2.49087489 C81.4885083,2.49087489 79.8746889,3.18556015 79.8746889,4.91751518 C79.8746889,6.6209215 81.0520666,7.34415547 86.5659493,9.70656116 C92.3792515,12.1998151 93.8585859,13.4559583 93.8585859,16.0419956 C93.8585859,19.7913927 90.0270336,21.6470588 85.1196018,21.6470588" id="Fill-12"></path>
                        <polyline id="Fill-13" points="112.621259 21.6470588 112.621259 11.8306832 100.93854 11.8306832 100.93854 21.6470588 97.9393939 21.6470588 97.9393939 0 100.93854 0 100.93854 9.19564507 112.621259 9.19564507 112.621259 0 115.622896 0 115.622896 21.6470588 112.621259 21.6470588"></polyline>
                        <path d="M143.549881,3.21304949 C142.087661,2.74215105 140.053998,2.52097147 138.399696,2.52097147 C133.311938,2.52097147 129.429491,5.79585611 129.429491,10.8354208 C129.429491,15.8773637 133.247111,19.1213308 138.399696,19.1213308 C140.022785,19.1213308 141.900382,18.8739902 143.487455,18.3674176 L144.157339,20.6695878 C142.469423,21.32837 140.210064,21.6470588 138.178803,21.6470588 C131.624022,21.6470588 126.505051,17.2044412 126.505051,10.8354208 C126.505051,4.47353523 131.496768,0 138.178803,0 C140.308506,0 142.469423,0.283014722 144.188552,0.91325759 L143.549881,3.21304949" id="Fill-14"></path>
                        <path d="M159.14907,2.55188905 C154.454903,2.55188905 151.215439,6.01703569 151.215439,10.8068815 C151.215439,15.6252666 154.454903,19.0927915 159.14907,19.0927915 C163.845682,19.0927915 167.085146,15.6252666 167.085146,10.8068815 C167.085146,6.01703569 163.845682,2.55188905 159.14907,2.55188905 Z M159.14907,21.6470588 C152.802165,21.6470588 148.26936,16.9190482 148.26936,10.8068815 C148.26936,4.72563238 152.802165,0 159.14907,0 C165.530204,0 170.03367,4.72563238 170.03367,10.8068815 C170.03367,16.9190482 165.530204,21.6470588 159.14907,21.6470588 Z" id="Fill-15"></path>
                        <path d="M190.512515,21.6470588 L190.512515,5.72803273 L184.702006,15.6349312 C184.518275,15.9263106 184.182965,16.249256 183.636364,16.249256 C183.085169,16.249256 182.752156,15.8898882 182.570721,15.5985088 L176.760212,5.72803273 L176.760212,21.6470588 L174.114478,21.6470588 L174.114478,1.41561809 C174.114478,0.643462769 174.631223,0 175.423565,0 C175.903564,0 176.300883,0.259813269 176.546624,0.67988519 L183.636364,12.5803042 L190.726103,0.67988519 C190.967251,0.259813269 191.362274,0 191.881315,0 C192.611648,0 193.158249,0.611896671 193.158249,1.38162383 L193.158249,21.6470588 L190.512515,21.6470588" id="Fill-16"></path>
                        <path d="M216.358271,21.6470588 L216.358271,5.72803273 L210.546867,15.6349312 C210.360884,15.9263106 210.030247,16.249256 209.481481,16.249256 C208.937308,16.249256 208.599783,15.8898882 208.418392,15.5985088 L202.609284,5.72803273 L202.609284,21.6470588 L199.959596,21.6470588 L199.959596,1.41561809 C199.959596,0.643462769 200.480808,0 201.270663,0 C201.757434,0 202.150066,0.259813269 202.391155,0.67988519 L209.481481,12.5803042 L216.571808,0.67988519 C216.812897,0.259813269 217.203232,0 217.722149,0 C218.452305,0 219.003367,0.611896671 219.003367,1.38162383 L219.003367,21.6470588 L216.358271,21.6470588" id="Fill-17"></path>
                        <path d="M234.650118,21.6470588 C228.936649,21.6470588 225.804714,17.6164436 225.804714,13.2020751 L225.804714,0 L228.744252,0 L228.744252,13.2672408 C228.744252,16.6872299 231.001876,19.0838771 234.650118,19.0838771 C238.264264,19.0838771 240.555984,16.6872299 240.555984,13.2672408 L240.555984,0 L243.488215,0 L243.488215,13.2020751 C243.488215,17.6478196 240.322184,21.6470588 234.650118,21.6470588" id="Fill-18"></path>
                        <path d="M265.17417,21.6470588 C264.790375,21.6470588 264.375202,21.5530669 264.087959,21.1650491 L251.743784,5.20570553 L251.743784,21.4855856 L248.929293,21.4855856 L248.929293,1.43879917 C248.929293,0.638662947 249.602743,0 250.370332,0 C250.816885,0 251.200679,0.127732589 251.490335,0.510930357 L263.798303,16.4437633 L263.798303,0.226544592 L266.612795,0.226544592 L266.612795,20.2420003 C266.612795,21.0710571 265.941758,21.6470588 265.17417,21.6470588" id="Fill-19"></path>
                        <path d="M280.231849,4.24685428 L276.543696,13.8648016 L283.91299,13.8648016 L280.231849,4.24685428 Z M286.890624,21.6470588 L284.754394,16.1497014 L275.67892,16.1497014 L273.542689,21.6470588 L270.693603,21.6470588 L279.0235,0.837715681 C279.243199,0.291379367 279.708309,0 280.231849,0 C280.755389,0 281.192451,0.291379367 281.407477,0.837715681 L289.737374,21.6470588 L286.890624,21.6470588 Z" id="Fill-20"></path>
                        <path d="M295.304008,21.6470588 C294.481319,21.6470588 293.818182,20.9672906 293.818182,20.1869069 L293.818182,0 L296.827228,0 L296.827228,19.0138773 L308.781145,19.0138773 L308.781145,21.6470588 L295.304008,21.6470588" id="Fill-21"></path>
                        <path d="M322.548706,2.60068937 L322.548706,9.20055203 L332.250468,9.20055203 C332.946698,9.20055203 333.518515,9.78693388 333.518515,10.5008967 C333.518515,11.2148596 332.946698,11.7668927 332.250468,11.7668927 L322.548706,11.7668927 L322.548706,21.6470588 L319.6633,21.6470588 L319.6633,1.46718136 C319.6633,0.682067591 320.333212,0 321.125143,0 L334.626263,0 L334.626263,2.60068937 L322.548706,2.60068937" id="Fill-22"></path>
                        <path d="M347.55004,21.6470588 C341.839869,21.6470588 338.707071,17.6168929 338.707071,13.2030166 L338.707071,0 L341.642547,0 L341.642547,13.2657617 C341.642547,16.6877828 343.903228,19.0865762 347.55004,19.0865762 C351.162746,19.0865762 353.455096,16.6877828 353.455096,13.2657617 L353.455096,0 L356.390572,0 L356.390572,13.2030166 C356.390572,17.6506787 353.228541,21.6470588 347.55004,21.6470588" id="Fill-23"></path>
                        <path d="M379.441232,21.6470588 C379.054918,21.6470588 378.639631,21.5530565 378.352311,21.169816 L366.00235,5.20628516 L366.00235,21.4879779 L363.191919,21.4879779 L363.191919,1.43413874 C363.191919,0.638734059 363.860724,0 364.628523,0 C365.077612,0 365.461511,0.127746812 365.753661,0.513397565 L378.060161,16.4480046 L378.060161,0.221749183 L380.875421,0.221749183 L380.875421,20.2442542 C380.875421,21.0758136 380.206616,21.6470588 379.441232,21.6470588" id="Fill-24"></path>
                        <path d="M391.603735,2.6350381 L389.181012,2.6350381 L389.181012,19.0144742 L391.603735,19.0144742 C396.636823,19.0144742 401.137862,16.2494016 401.137862,10.8247562 C401.137862,5.39765719 396.636823,2.6350381 391.603735,2.6350381 Z M391.131066,21.6470588 L387.767757,21.6470588 C386.974434,21.6470588 386.316498,20.9649912 386.316498,20.1847844 L386.316498,1.46718136 C386.316498,0.682067591 386.974434,0 387.767757,0 L391.131066,0 C398.776895,0 404,4.32303272 404,10.8247562 C404,17.3240261 398.776895,21.6470588 391.131066,21.6470588 Z" id="Fill-25"></path>
                        <path d="M14.6734377,0 L14.6734377,13.2663063 C14.6734377,16.6890906 12.3247892,19.0860051 8.62335897,19.0860051 C5.96022611,19.0860051 4.03837766,17.8525476 3.14234702,15.9142572 L0,15.9142572 C1.04578507,19.1366952 4.01092268,21.6470588 8.62335897,21.6470588 C14.4413184,21.6470588 17.6835017,17.6473737 17.6835017,13.2059611 L17.6835017,0 L14.6734377,0" id="Fill-26"></path>
                        <path d="M23.2564408,21.6470588 C22.4454468,21.6470588 21.7643098,20.9625378 21.7643098,20.1798775 L21.7643098,1.4622744 C21.7643098,0.67961411 22.4454468,0 23.2564408,0 L36.6292674,0 L36.6292674,2.59823589 L24.7167202,2.59823589 L24.7167202,9.19564507 L34.4216975,9.19564507 C35.1346862,9.19564507 35.720268,9.78202692 35.720268,10.4984432 C35.720268,11.2124061 35.1346862,11.7668927 34.4216975,11.7668927 L24.7167202,11.7668927 L24.7167202,19.043916 L36.7272727,19.043916 L36.7272727,21.6470588 L23.2564408,21.6470588" id="Fill-27"></path>
                        <path d="M60.7954487,20.6220027 C60.5992799,21.2674979 60.0753353,21.6470588 59.4173007,21.6470588 C58.7542997,21.6470588 58.2626361,21.2989265 58.1012314,20.7863985 L53.0356062,5.22198426 L48.0022619,20.7863985 C47.8358909,21.2989265 47.3442272,21.6470588 46.6861926,21.6470588 C45.995877,21.6470588 45.4694493,21.2312342 45.3055614,20.6220027 L39.4478114,0.161978215 L42.377928,0.161978215 L46.8475973,15.9173817 L51.7840987,0.867913125 C51.9479866,0.35538504 52.4396502,0 53.0356062,0 C53.6588767,0 54.1555066,0.35538504 54.3169114,0.867913125 L59.2509296,15.9173817 L63.7230821,0.161978215 L66.6531987,0.161978215 L60.7954487,20.6220027" id="Fill-28"></path>
                        <polygon id="Fill-29" points="70.7340067 21.6470588 73.4545455 21.6470588 73.4545455 0 70.7340067 0"></polygon>
                        <path d="M85.1196018,21.6470588 C82.1634705,21.6470588 79.0677792,21.0856009 76.1750842,20.0745008 L76.8855707,17.8072574 C79.5372078,18.5923469 82.4299029,19.1609421 85.1196018,19.1609421 C88.8471185,19.1609421 90.798419,17.9309685 90.798419,16.1990135 C90.798419,14.6240763 89.2860977,13.8366078 84.0767091,11.5669854 C78.8673205,9.29736299 76.8170595,7.848516 76.8170595,5.01267754 C76.8170595,1.45122606 79.7731908,0 85.3530474,0 C87.6722783,0 91.2348607,0.442504994 93.2876592,1.01110012 L92.8156932,3.34257805 C90.5649734,2.83583846 87.7407895,2.49087489 85.4215586,2.49087489 C81.4885083,2.49087489 79.8746889,3.18556015 79.8746889,4.91751518 C79.8746889,6.6209215 81.0520666,7.34415547 86.5659493,9.70656116 C92.3792515,12.1998151 93.8585859,13.4559583 93.8585859,16.0419956 C93.8585859,19.7913927 90.0270336,21.6470588 85.1196018,21.6470588" id="Fill-30"></path>
                        <polyline id="Fill-31" points="112.621259 21.6470588 112.621259 11.8306832 100.93854 11.8306832 100.93854 21.6470588 97.9393939 21.6470588 97.9393939 0 100.93854 0 100.93854 9.19564507 112.621259 9.19564507 112.621259 0 115.622896 0 115.622896 21.6470588 112.621259 21.6470588"></polyline>
                        <path d="M143.549881,3.21304949 C142.087661,2.74215105 140.053998,2.52097147 138.399696,2.52097147 C133.311938,2.52097147 129.429491,5.79585611 129.429491,10.8354208 C129.429491,15.8773637 133.247111,19.1213308 138.399696,19.1213308 C140.022785,19.1213308 141.900382,18.8739902 143.487455,18.3674176 L144.157339,20.6695878 C142.469423,21.32837 140.210064,21.6470588 138.178803,21.6470588 C131.624022,21.6470588 126.505051,17.2044412 126.505051,10.8354208 C126.505051,4.47353523 131.496768,0 138.178803,0 C140.308506,0 142.469423,0.283014722 144.188552,0.91325759 L143.549881,3.21304949" id="Fill-32"></path>
                        <path d="M159.14907,2.55188905 C154.454903,2.55188905 151.215439,6.01703569 151.215439,10.8068815 C151.215439,15.6252666 154.454903,19.0927915 159.14907,19.0927915 C163.845682,19.0927915 167.085146,15.6252666 167.085146,10.8068815 C167.085146,6.01703569 163.845682,2.55188905 159.14907,2.55188905 Z M159.14907,21.6470588 C152.802165,21.6470588 148.26936,16.9190482 148.26936,10.8068815 C148.26936,4.72563238 152.802165,0 159.14907,0 C165.530204,0 170.03367,4.72563238 170.03367,10.8068815 C170.03367,16.9190482 165.530204,21.6470588 159.14907,21.6470588 Z" id="Fill-33"></path>
                        <path d="M190.512515,21.6470588 L190.512515,5.72803273 L184.702006,15.6349312 C184.518275,15.9263106 184.182965,16.249256 183.636364,16.249256 C183.085169,16.249256 182.752156,15.8898882 182.570721,15.5985088 L176.760212,5.72803273 L176.760212,21.6470588 L174.114478,21.6470588 L174.114478,1.41561809 C174.114478,0.643462769 174.631223,0 175.423565,0 C175.903564,0 176.300883,0.259813269 176.546624,0.67988519 L183.636364,12.5803042 L190.726103,0.67988519 C190.967251,0.259813269 191.362274,0 191.881315,0 C192.611648,0 193.158249,0.611896671 193.158249,1.38162383 L193.158249,21.6470588 L190.512515,21.6470588" id="Fill-34"></path>
                        <path d="M216.358271,21.6470588 L216.358271,5.72803273 L210.546867,15.6349312 C210.360884,15.9263106 210.030247,16.249256 209.481481,16.249256 C208.937308,16.249256 208.599783,15.8898882 208.418392,15.5985088 L202.609284,5.72803273 L202.609284,21.6470588 L199.959596,21.6470588 L199.959596,1.41561809 C199.959596,0.643462769 200.480808,0 201.270663,0 C201.757434,0 202.150066,0.259813269 202.391155,0.67988519 L209.481481,12.5803042 L216.571808,0.67988519 C216.812897,0.259813269 217.203232,0 217.722149,0 C218.452305,0 219.003367,0.611896671 219.003367,1.38162383 L219.003367,21.6470588 L216.358271,21.6470588" id="Fill-35"></path>
                        <path d="M234.650118,21.6470588 C228.936649,21.6470588 225.804714,17.6164436 225.804714,13.2020751 L225.804714,0 L228.744252,0 L228.744252,13.2672408 C228.744252,16.6872299 231.001876,19.0838771 234.650118,19.0838771 C238.264264,19.0838771 240.555984,16.6872299 240.555984,13.2672408 L240.555984,0 L243.488215,0 L243.488215,13.2020751 C243.488215,17.6478196 240.322184,21.6470588 234.650118,21.6470588" id="Fill-36"></path>
                        <path d="M265.17417,21.6470588 C264.790375,21.6470588 264.375202,21.5530669 264.087959,21.1650491 L251.743784,5.20570553 L251.743784,21.4855856 L248.929293,21.4855856 L248.929293,1.43879917 C248.929293,0.638662947 249.602743,0 250.370332,0 C250.816885,0 251.200679,0.127732589 251.490335,0.510930357 L263.798303,16.4437633 L263.798303,0.226544592 L266.612795,0.226544592 L266.612795,20.2420003 C266.612795,21.0710571 265.941758,21.6470588 265.17417,21.6470588" id="Fill-37"></path>
                        <path d="M280.231849,4.24685428 L276.543696,13.8648016 L283.91299,13.8648016 L280.231849,4.24685428 Z M286.890624,21.6470588 L284.754394,16.1497014 L275.67892,16.1497014 L273.542689,21.6470588 L270.693603,21.6470588 L279.0235,0.837715681 C279.243199,0.291379367 279.708309,0 280.231849,0 C280.755389,0 281.192451,0.291379367 281.407477,0.837715681 L289.737374,21.6470588 L286.890624,21.6470588 Z" id="Fill-38"></path>
                        <path d="M295.304008,21.6470588 C294.481319,21.6470588 293.818182,20.9672906 293.818182,20.1869069 L293.818182,0 L296.827228,0 L296.827228,19.0138773 L308.781145,19.0138773 L308.781145,21.6470588 L295.304008,21.6470588" id="Fill-39"></path>
                        <path d="M322.548706,2.60068937 L322.548706,9.20055203 L332.250468,9.20055203 C332.946698,9.20055203 333.518515,9.78693388 333.518515,10.5008967 C333.518515,11.2148596 332.946698,11.7668927 332.250468,11.7668927 L322.548706,11.7668927 L322.548706,21.6470588 L319.6633,21.6470588 L319.6633,1.46718136 C319.6633,0.682067591 320.333212,0 321.125143,0 L334.626263,0 L334.626263,2.60068937 L322.548706,2.60068937" id="Fill-40"></path>
                        <path d="M347.55004,21.6470588 C341.839869,21.6470588 338.707071,17.6168929 338.707071,13.2030166 L338.707071,0 L341.642547,0 L341.642547,13.2657617 C341.642547,16.6877828 343.903228,19.0865762 347.55004,19.0865762 C351.162746,19.0865762 353.455096,16.6877828 353.455096,13.2657617 L353.455096,0 L356.390572,0 L356.390572,13.2030166 C356.390572,17.6506787 353.228541,21.6470588 347.55004,21.6470588" id="Fill-41"></path>
                        <path d="M379.441232,21.6470588 C379.054918,21.6470588 378.639631,21.5530565 378.352311,21.169816 L366.00235,5.20628516 L366.00235,21.4879779 L363.191919,21.4879779 L363.191919,1.43413874 C363.191919,0.638734059 363.860724,0 364.628523,0 C365.077612,0 365.461511,0.127746812 365.753661,0.513397565 L378.060161,16.4480046 L378.060161,0.221749183 L380.875421,0.221749183 L380.875421,20.2442542 C380.875421,21.0758136 380.206616,21.6470588 379.441232,21.6470588" id="Fill-42"></path>
                        <path d="M391.603735,2.6350381 L389.181012,2.6350381 L389.181012,19.0144742 L391.603735,19.0144742 C396.636823,19.0144742 401.137862,16.2494016 401.137862,10.8247562 C401.137862,5.39765719 396.636823,2.6350381 391.603735,2.6350381 Z M391.131066,21.6470588 L387.767757,21.6470588 C386.974434,21.6470588 386.316498,20.9649912 386.316498,20.1847844 L386.316498,1.46718136 C386.316498,0.682067591 386.974434,0 387.767757,0 L391.131066,0 C398.776895,0 404,4.32303272 404,10.8247562 C404,17.3240261 398.776895,21.6470588 391.131066,21.6470588 Z" id="Fill-43"></path>
                        <path d="M14.6734377,0 L14.6734377,13.2663063 C14.6734377,16.6890906 12.3247892,19.0860051 8.62335897,19.0860051 C5.96022611,19.0860051 4.03837766,17.8525476 3.14234702,15.9142572 L0,15.9142572 C1.04578507,19.1366952 4.01092268,21.6470588 8.62335897,21.6470588 C14.4413184,21.6470588 17.6835017,17.6473737 17.6835017,13.2059611 L17.6835017,0 L14.6734377,0" id="Fill-44"></path>
                    </g>
                </g>
            </g>
        </g>
    </g>
</svg>
